<?xml version="1.0" encoding="utf-8"?>
<!-- TLMAPS -->
<!DOCTYPE svg PUBLIC "-//W3C//DTD SVG 1.0//EN" "http://www.w3.org/TR/2001/REC-SVG-20010904/DTD/svg10.dtd" [
	<!ENTITY ns_svg "http://www.w3.org/2000/svg">
	<!ENTITY ns_xlink "http://www.w3.org/1999/xlink">
]>
<svg width="800" height="800" viewBox="0 0 800 800">
<path d="M509.354,122.382c1.355,0.577,2.066,1.384,2.129,2.176c0.061,0.731,0.302,2.063,0.6,3.022
	c0.54,2.046,0.658,2.589,0.783,3.929c0.061,0.67,1.122,1.145,3.305,1.541c1.767,0.302,3.241,0.809,3.243,1.116
	c0,0.245,0.533,0.452,1.179,0.406c1.53-0.11,1.476,0.384-0.048,2.272c-0.938,1.048-1.114,1.673-0.701,2.195
	c0.948,1.158,0.454,10.266-0.602,11.201c-0.47,0.401-1.232,1.56-1.58,2.627c-0.933,2.458-0.933,2.52-1.045,4.366
	c0.005,0.858-0.58,2.126-1.224,2.847c-0.645,0.721-0.938,1.293-0.584,1.268c0.94-0.067,0.008,1.777-1.171,2.229
	c-0.763,0.3-1.113,1.306-1.396,4.146c-0.169,2.035-0.744,5.203-1.209,7.014c-0.871,3.127-0.811,3.491,0.261,6.112
	c0.95,2.077,1.071,3.11,0.664,4.366c-0.351,0.883-0.578,2.249-0.576,3.045c0.002,0.796-0.345,1.864-0.756,2.323
	c-0.472,0.462-0.997,1.665-1.227,2.663c-0.871,3.74-2.809,4.615-5.88,2.507c-1.242-0.832-2.599-1.53-2.953-1.505
	c-0.294,0.021-1.182-0.651-1.891-1.581c-1.303-1.562-2.245-1.739-7.722-1.346c-1.353,0.097-2.593-0.121-2.77-0.415
	c-0.236-0.351-0.768-0.436-1.179-0.222c-0.529,0.283-1.594-0.989-3.075-3.703c-2.256-4.068-3.023-4.687-7.506-5.898
	c-0.53-0.207-1.301-1.01-1.716-1.838c-0.354-0.833-0.889-1.469-1.183-1.448c-0.294,0.021-0.414-0.215-0.239-0.534
	c0.178-0.258-0.356-1.078-1.124-1.819c-2.306-2.042-3.891-0.825-5.169,4.049c-0.753,2.751-0.867,4.108-0.451,4.508
	c1.18,1.141,0.716,2.707-1.512,5.319c-2.053,2.293-3.99,3.781-4.933,3.665c-0.236-0.044-0.882,0.553-1.409,1.205
	c-0.586,0.716-1.352,1.323-1.646,1.344c-0.352,0.025-1.176,0.575-1.819,1.295c-1.468,1.454-4.641,2.847-6.879,3.007
	c-1.355,0.097-1.71-0.245-2.306-2.164c-0.359-1.201-1.132-3.229-1.667-4.417c-1.071-2.438-2.604-2.94-6.606-2.408
	c-4.592,0.575-6.536,0.408-6.893-0.669c-0.239-0.535-0.773-1.232-1.244-1.505c-0.591-0.325-0.713-1.052-0.423-2.543
	c0.23-1.488,0.049-2.641-0.664-3.876c-1.066-1.701-1.066-1.701,0.695-3.238c0.938-0.864,2.289-2.187,3.052-2.978
	c0.76-0.852,1.465-1.515,1.643-1.527c0.471-0.034,6.099-6.691,6.096-7.243c0-0.307,0.646-0.721,1.471-1.025
	c0.823-0.243,1.468-0.719,1.468-0.963c0-0.245,0.644-1.211,1.463-2.19c0.82-0.979,1.348-2.058,1.11-2.348
	c-0.593-1,0.923-4.725,2.394-5.628c0.823-0.488,1.467-1.147,1.467-1.393c-0.002-0.306,0.705-0.418,1.647-0.302
	c1.001,0.113,2.474-0.361,3.941-1.264c1.233-0.763,2.055-1.374,1.819-1.356c-0.294,0.021,0.292-0.818,1.23-1.867
	c1.056-1.117,3.525-2.643,5.993-3.618c2.294-0.961,4.175-1.955,4.175-2.2c-0.003-0.245,0.408-0.521,0.879-0.554
	c0.472-0.034,2-0.696,3.412-1.41c1.352-0.772,3.938-2,5.702-2.801c1.765-0.8,4.527-2.286,6.054-3.254
	c1.527-0.968,3.469-1.843,4.234-1.898c1.824-0.131,4.294-1.473,6.111-3.381c0.82-0.795,1.761-1.414,2.174-1.26
	c0.414,0.154,0.882-0.186,1.057-0.689c0.176-0.503,0.586-0.9,0.999-0.93c0.353-0.025,1.409-0.775,2.35-1.64
	c1.174-1.126,2.233-1.57,3.293-1.524c0.942,0.055,1.295,0.029,0.942-0.129c-1.475-0.568-0.656-1.608,1.582-2.075
	C507.171,121.496,508.232,121.911,509.354,122.382z"/>
<path d="M580.817,7.58c0.002,0.184,0.187,2.255,0.313,4.637c0.188,3.113,0.668,4.795,1.673,6.316
	c0.713,1.114,1.663,3.007,2.078,4.143c0.418,1.44,2.313,3.574,5.445,6.352c2.658,2.323,5.674,5.049,6.737,6.075
	c1.064,1.028,2.72,2.257,3.665,2.802c4.13,2.279,6.672,4.058,6.672,4.548c0.004,0.919,7.138,2.614,11.262,2.687
	c4.83,0.143,8.83-1.002,14.178-4.145c2.291-1.329,4.407-2.278,4.646-2.111c0.294,0.163,1.06-0.076,1.706-0.49
	c0.999-0.624,1.528-0.539,2.77,0.353c0.827,0.675,1.83,1.155,2.243,1.125c0.353-0.025,0.707,0.317,0.709,0.686
	c0.061,0.424,0.245,2.618,0.491,4.869c0.731,6.629-0.902,10.731-4.61,11.549c-2.587,0.615-4.117,1.215-4.409,1.727
	c-0.175,0.319-1.349,1.384-2.583,2.332c-2.407,1.889-3.702,1.86-5.005,0.052c-0.771-0.987-0.888-0.979-2.53,0.733
	c-0.94,0.987-1.7,2.206-1.698,2.574c0.003,0.49-0.763,0.852-1.881,0.932c-1.001,0.072-2.296,0.594-2.881,1.188
	c-0.94,0.926-1.176,0.943-2.826,0.204c-0.944-0.484-2.831-0.778-4.126-0.685c-4.003,0.288-5.539-0.828-6.794-4.662
	c-0.296-0.898-0.768-0.987-3.24-0.502c-1.59,0.297-3.647,0.936-4.589,1.371c-0.881,0.492-2.293,0.962-3.058,1.139
	c-4.061,0.843-5.937,3.062-5.921,7.045c0.004,1.104-0.282,2.902-0.633,4.03c-0.583,1.758-0.875,2.086-2.053,1.986
	c-0.178,0.013-0.646,0.476-1.058,1.119c-0.701,1.031-0.938,0.986-3.122-0.206c-1.297-0.703-2.362-1.546-2.423-1.788
	c-0.004-1.716-0.774-2.825-1.775-2.753c-2.003,0.144-3.066-0.455-3.071-1.68c-0.003-0.736-0.593-1.368-1.538-1.667
	c-0.825-0.309-1.888-0.907-2.42-1.421c-0.826-0.737-1.003-0.724-1.884,0.197c-0.588,0.533-1.528,1.029-2.174,1.076
	c-1.001,0.072-1.121-0.288-1.014-2.563c0.054-1.414,0.165-3.016,0.224-3.51c0.114-0.499-0.008-1.899-0.309-3.105
	c-0.479-2.356-1.718-2.88-5.722-2.592c-1.943,0.14-4.07-1.363-4.075-2.834c-0.003-0.551-1.186-1.938-2.604-3.001
	c-3.013-2.358-3.788-4.816-2.444-7.61c0.466-1.014,0.872-2.515,0.87-3.373c-0.003-0.797,0.345-1.925,0.756-2.383
	c0.352-0.455,0.76-1.403,0.816-2.082c-0.004-0.675,0.869-3.374,1.802-5.954c0.991-2.583,2.212-6.84,2.732-9.391
	c0.52-2.551,1.098-5.106,1.215-5.666c0.23-0.936,0.526-0.957,2.647-0.313c2.831,0.778,4.42,0.295,4.826-1.388
	c0.23-0.998,0.819-1.286,3.174-1.454c2.236-0.161,3.531-0.683,5.882-2.445C578.698,7.548,580.698,6.731,580.817,7.58z"/>
<path d="M543.579,137.825c0,0.368,0.47,0.579,1.001,0.418c0.822-0.182,1.12,0.288,1.365,2.292c0.423,3.096,0.66,3.325,2.84,3.291
	c0.94-0.006,2.121,0.277,2.65,0.667c1.124,0.9,4.364,1.158,4.834,0.389c0.174-0.319,1.999-0.572,4.001-0.532
	c2.65-0.007,3.945-0.222,4.709-0.951c1.058-0.934,1.058-1.057,0.109-2.46c-0.949-1.403-0.949-1.525-0.01-1.961
	c0.588-0.288,1.473-0.29,2.005,0.04c0.53,0.33,1.888,0.723,3.006,0.826c1.12,0.166,2.476,0.375,2.946,0.524
	c1.239,0.279,3.019,3.4,2.61,4.533c-0.409,1.194,1.256,4.508,2.97,5.856c0.886,0.733,1.829,0.849,3.416,0.49
	c3.003-0.706,3.829-0.091,2.306,1.673c-1.058,1.241-1.172,1.923-0.868,4.292c0.243,1.76,0.956,3.425,1.784,4.347
	c1.716,1.716,1.716,1.41,0.253,4.212c-0.703,1.338-1.164,3.394-1.159,4.988c0.007,1.532-0.224,2.774-0.459,2.792
	c-0.236,0.017-0.351,1.006-0.227,2.162c0.182,1.52,0.008,2.145-0.58,2.188c-0.413,0.03-1.118,0.693-1.587,1.402
	c-0.642,1.21-0.642,1.333,0.183,0.967c0.588-0.288,0.939-0.129,0.942,0.484c0.002,0.49-0.642,1.211-1.407,1.572
	c-0.998,0.439-1.525,1.213-1.641,2.386c-0.111,1.479-0.463,1.75-2.111,2.052c-1.647,0.303-2.118,0.765-2.815,2.593
	c-0.991,2.523-0.754,3.732,0.782,4.296c0.707,0.255,1.063,1.026,1.069,2.375c0.007,1.777-0.109,1.97-1.23,1.805
	c-0.768-0.19-1.591,0.114-1.999,0.696c-0.41,0.52-1.176,1.003-1.706,1.042c-1.176,0.146-3.054,1.875-4.341,4.112
	c-0.586,1.023-1.524,1.826-2.173,1.873c-2.178,0.156-4.058,1.701-4.696,3.77c-0.931,3.071-0.512,4.758,1.197,5.064
	c1.239,0.217,1.417,0.634,1.306,2.113c-0.225,2.835-0.46,3.159-2.579,3.74c-1.293,0.338-3.054,1.752-5.166,4.049
	c-2.347,2.559-4.166,3.916-6.755,5.021c-7.644,3.369-9.935,4.515-10.462,5.472c-0.233,0.507-1.231,1.008-2.174,1.076
	c-0.943,0.067-2.061,0.516-2.47,0.974c-1.231,1.437-5.056,2.754-7.529,2.686c-2.65-0.055-2.942,0.334-2.929,4.317
	c0.008,2.084-0.281,2.902-1.104,3.451c-1.704,1.042-8.417,1.34-9.658,0.448c-0.591-0.448-1.593-0.622-2.241-0.391
	c-2.293,0.839-4.604-2.979-2.902-4.879c0.351-0.393,0.639-1.762,0.752-3.12c0.109-2.276-0.01-2.39-1.424-2.166
	c-1.117,0.142-1.647-0.127-1.888-0.968c-0.179-0.601-0.712-1.113-1.242-1.076c-0.588,0.043-0.942-0.483-0.946-1.403
	c-0.004-0.796-0.419-1.563-0.89-1.774c-0.472-0.15-0.887-0.672-0.889-1.224c-0.004-0.919,0.29-1.002,4.705-1.564
	c4.474-0.505,7.181-1.496,6.823-2.452c-0.238-0.535,0.054-1.291,0.642-1.762c0.996-0.869,0.996-0.991-0.306-2.737
	c-1.125-1.452-1.305-2.297-1.019-4.218c0.287-1.981,0.168-2.464-1.013-3.237c-1.301-0.888-1.361-1.251-1.393-9.219
	c-0.029-7.293,0.084-8.405,1.025-8.962c0.588-0.41,0.996-1.359,0.991-2.34c-0.003-0.919,0.637-2.926,1.456-4.457
	c0.818-1.469,1.459-3.109,1.457-3.6s0.586-0.9,1.293-0.95c1.001-0.072,1.118-0.264,0.585-0.778c-0.413-0.399-0.714-1.849-0.719-3.32
	c-0.008-1.471-0.246-2.619-0.601-2.593c-0.294,0.021-0.588,0.349-0.586,0.717c0.004,0.49-0.294,0.45-0.942-0.055
	c-0.944-0.729-0.889-1.775,0.263-8.417c0.689-3.789,1.215-4.991,2.918-6.707c1.291-1.319,2.979-6.223,3.203-9.365
	c0.223-2.836,0.223-2.774,1.398-3.533c1.469-0.963,6.891-0.127,9.605,1.456c1.241,0.708,2.539,1.289,2.891,1.263
	c0.355-0.025,2.059-1.189,3.879-2.546l3.229-2.439l-0.364-3.099c-0.304-2.247-0.132-3.608,0.51-5.003
	c0.524-1.08,0.934-2.274,0.93-2.703c0-0.368,0.528-0.773,1.177-0.82C543.044,137.251,543.575,137.519,543.579,137.825z"/>
<path d="M606.32,156.125c1.181,1.202,1.421,1.982,1.132,3.658c-0.459,3.098,0.721,3.626,6.608,3.143
	c3.359-0.241,5.009-0.114,5.009,0.376c0.002,0.368,1.124,1.39,2.425,2.278c1.357,0.884,2.719,2.318,3.134,3.208
	c0.356,0.833,1.72,3.248,3.024,5.238l2.37,3.692l2.647-0.558c6.121-1.297,6.828-1.349,8.068-0.64
	c0.709,0.439,1.42,1.676,1.661,2.762c0.238,1.086,1.365,2.966,2.548,4.108c2.543,2.576,4.442,6.363,3.621,7.219
	c-0.938,1.11-0.581,2.126,0.833,2.27c0.827,0.063,1.299,0.52,1.303,1.317c0.002,0.735,0.534,1.249,1.478,1.426
	c1.414,0.267,1.594,0.683,1.132,3.291c-0.173,0.871,0.121,1.217,0.948,1.219c0.646-0.046,1.47-0.228,1.764-0.434
	c0.353-0.208,1.117-0.509,1.706-0.613c0.648-0.169,2-1.001,2.995-1.932l1.879-1.606l2.188,1.437c1.887,1.274,2.3,1.368,3.534,0.543
	c2.291-1.391,3.179-0.719,2.777,2.068c-0.459,2.914,0.26,6.295,2.1,9.904c1.899,3.725,1.909,6.299-0.032,6.929
	c-1.057,0.383-1.467,0.902-1.465,2.005c0.008,1.655-0.522,1.877-5.29,2.833c-3.352,0.67-9.41,3.312-9.405,4.108
	c0,0.246-0.35,0.883-0.702,1.337c-0.411,0.459-1.171,1.863-1.755,3.13c-0.874,2.147-0.874,2.392,0.195,4.768
	c0.596,1.428,0.955,2.812,0.778,3.131c-0.176,0.32-1.35,1.201-2.525,1.959c-1.822,1.05-2.35,1.824-2.636,3.561
	c-0.231,1.182-0.227,2.468,0.012,2.881c0.235,0.35,0.479,1.927,0.483,3.459c0.067,2.386,0.247,2.802,1.368,2.906
	c0.707,0.072,1.592,0.499,1.946,0.963c0.415,0.46,1.181,0.773,1.71,0.735c0.53-0.038,1.298,0.459,1.714,1.103
	c0.415,0.645,1.357,1.129,2.184,1.07c2.061-0.148,1.891,1.335-0.573,3.964c-1.115,1.245-2.053,2.538-2.051,2.845
	c0,0.307-0.527,0.773-1.174,1.004c-0.648,0.23-1.176,0.82-1.173,1.372c0.002,0.551-0.231,0.998-0.586,1.022
	c-0.766,0.055-3.044,4.204-4.033,7.34c-0.989,3.136-1.694,4.105-2.988,4.199c-0.53,0.038-1.823,0.56-2.764,1.118
	c-0.998,0.624-4.174,1.833-6.999,2.709c-7.176,2.293-10.232,4.168-15.335,9.438c-4.048,4.153-8.864,7.87-12.625,9.734
	c-0.824,0.427-1.704,1.164-1.878,1.667c-0.175,0.503-0.705,0.909-1.115,0.939c-0.472,0.033-1.177,0.513-1.587,1.033
	c-0.411,0.582-0.879,0.861-1.058,0.75c-0.119-0.176-0.939,0.313-1.764,0.985c-0.763,0.729-1.703,1.349-1.997,1.37
	s-2.114,1.378-3.991,3.045c-1.879,1.667-3.582,3.016-3.76,3.029c-0.41,0.029-4.866,5.314-7.62,9.129
	c-1.232,1.621-3.046,3.958-4.043,5.195c-2.933,3.582-4.923,6.667-5.387,8.356c-0.522,2.122-2.154,5.794-3.034,6.838
	c-0.411,0.459-0.764,1.158-0.762,1.465c0,0.306-0.232,0.568-0.587,0.594c-0.294,0.021-0.591-0.571-0.594-1.367
	c-0.007-1.962-0.896-3.062-2.014-2.553c-0.646,0.353-1.176,0.023-1.651-0.985c-0.832-1.901-3.011-1.807-4.299,0.125
	c-0.469,0.83-1.115,1.429-1.352,1.445c-0.235-0.044-0.646,0.046-0.998,0.133c-0.295,0.144-2.826,0.693-5.592,1.26
	c-4.179,0.913-5.474,1.006-7.95,0.387c-1.591-0.438-3.654-0.719-4.479-0.66c-0.883,0.064-1.825-0.236-2.18-0.64
	c-0.357-0.403-1.478-0.752-2.537-0.737c-1.06-0.047-2.002-0.102-2.063-0.159c-0.059-0.057,0.112-1.724,0.398-3.707
	c0.515-3.592,0.095-5.647-1.499-6.574c-0.472-0.272-0.413-0.461,0.116-0.499c0.883-0.064,0.981-4.729,0.098-5.218
	c-0.946-0.545-0.713-1.297,1.047-3.141c3.46-3.681,4.165-4.528,4.396-5.648c0.406-1.562-1.837-2.504-4.131-1.727
	c-3.47,1.292-3.292,1.463-3.132-2.595c0.054-1.352-0.304-2.492-0.836-2.882c-1.416-1.125-1.192-3.715,0.28-4.189
	c0.823-0.305,0.997-0.562,0.466-0.831c-0.472-0.333-0.297-0.653,0.586-1.207c0.646-0.476,1.231-1.192,1.229-1.683
	c-0.005-1.225-3.788-4.938-4.967-4.854c-0.529,0.039-0.942-0.238-0.945-0.667c-0.003-0.368-0.535-1.31-1.186-1.999
	c-1.122-1.084-1.419-1.125-3.241-0.381c-1.117,0.509-2.233,1.08-2.41,1.338c-0.234,0.201-0.883,0.186-1.531-0.136
	c-1.71-0.796-2.356-0.26-2.583,2.086c-0.284,2.902-0.692,3.851-1.399,3.473c-0.296-0.163-1.592,0.053-2.826,0.57
	c-1.999,0.757-2.47,0.73-4.361-0.483c-1.18-0.773-2.952-1.689-4.012-2.042c-2.064-0.771-2.946-0.095-2.937,2.417
	c0.004,0.675-0.403,1.807-0.873,2.515c-0.469,0.647-0.876,1.718-0.874,2.27c0.002,0.613-0.231,1.121-0.525,1.142
	c-0.707,0.05-1.523,2.5-1.28,3.893c0.061,0.547-0.173,1.177-0.525,1.447c-0.294,0.206-0.59-0.019-0.59-0.509
	c-0.005-0.797-1.36-1.497-3.482-1.711c-0.413-0.093-1.062-0.353-1.416-0.696c-0.354-0.342-1.652-0.556-2.83-0.471
	c-2.354,0.169-2.887-0.467-2.899-3.47c-0.012-2.758-1.613-6.015-2.969-5.917c-1.825,0.13-1.416-0.88,0.874-2.147
	c1.118-0.632,2.056-1.435,2.056-1.68c0-0.307,0.586-0.716,1.352-0.955c0.704-0.296,1.764-0.863,2.349-1.395
	c1.058-0.873,1.058-0.995-0.423-3.157c-0.889-1.225-1.72-2.881-1.841-3.669c-0.181-0.784-0.421-2.054-0.6-2.838
	c-0.181-0.967-0.832-1.473-2.068-1.69c-1.649-0.188-1.769-0.363-1.363-1.925c0.754-3.364,0.573-4.21-1.017-4.096
	c-1.414,0.102-1.472,0.044-1.314-4.564c0.163-3.629-0.019-4.78-0.729-5.342c-1.416-1.125-1.127-2.249,0.813-3.614
	c0.998-0.624,1.877-1.668,2.053-2.231c0.173-0.564,0.761-1.22,1.349-1.507c0.53-0.222,1.409-0.653,1.88-0.993
	c1.469-1.086,6.644-3.236,8.763-3.695c3.001-0.644,7.228-4.135,6.985-5.773c-0.243-1.821,2.699-2.401,3.649-0.691
	c0.415,0.89,1.241,1.198,2.536,1.105c1.06-0.076,2.18,0.089,2.534,0.432c1.007,0.97,9.839,0.336,11.423-0.82
	c0.472-0.34,0.993-1.972,1.164-3.885l0.281-3.269l3.062-0.342c1.767-0.126,4.237-0.917,5.647-1.754
	c1.412-0.837,2.939-1.499,3.469-1.536c0.53-0.039,1.293-0.522,1.704-1.164c0.88-1.167,7.756-5.033,9.109-5.13
	c1.589-0.114,6.407-3.402,8.811-6.088c1.289-1.441,2.993-2.791,3.816-3.095c2.472-0.79,3.937-2.612,4.279-5.211
	c0.401-2.665,0.104-3.318-1.726-4.229c-0.768-0.435-1.122-1.084-1.009-2.073c0.346-2.232,1.226-3.092,3.402-3.249
	c1.473-0.106,2.238-0.589,2.998-1.809c2.341-3.847,6.748-6.737,8.517-5.699c2.304,1.367,4.534-0.509,2.524-2.082
	c-0.649-0.504-0.828-1.289-0.54-2.781c0.288-1.86,0.168-2.158-1.248-2.608c-1.12-0.349-1.475-0.814-1.241-1.504
	c0.174-0.564,0.347-1.251,0.347-1.558c-0.002-0.307,0.411-0.582,0.88-0.615c1.708-0.123,3.883-1.75,4.169-3.12
	c0.175-0.809,0.761-1.648,1.291-1.87c1.293-0.46,3.036-6.287,3.022-9.842c-0.018-4.29,0.563-6.6,1.798-7.056
	c0.646-0.292,1.117-0.816,1.115-1.307c-0.005-0.858,2.109-2.665,3.815-3.093c1.06-0.322,2.466-2.384,4.099-6.241
	c0.819-1.836,1.109-2.042,3.524-2.215c1.414-0.102,2.768-0.505,3.002-0.951c0.291-0.45,0.646-0.353,1.178,0.405
	C604.543,154.046,605.55,155.261,606.32,156.125z"/>
<path d="M471.934,177.115c0.308,3.043,1.667,4.723,4.143,5.097c0.944,0.178,1.712,0.675,1.714,1.165c0,0.49,0.531,0.82,1.238,0.769
	c0.883-0.063,1.534,0.749,2.544,3.005c1.427,3.269,4.209,6.38,5.326,6.177c0.353-0.086,1.06-0.076,1.531,0.135
	c0.475,0.15,2.124,0.338,3.655,0.412c2.063,0.097,2.768-0.076,3.058-0.771c0.351-1.067,1.527-1.396,1.531-0.477
	c0.002,1.042,2.782,3.54,3.783,3.468c0.53-0.038,1.533,0.564,2.242,1.372c0.711,0.807,1.655,1.414,2.127,1.38
	c1.236-0.088,2.125,1.135,2.842,3.903c0.598,2.288,0.541,2.598-0.399,2.972c-1.939,0.813-0.734,8.268,1.69,10.483
	c1.181,1.019,1.303,1.501,0.775,2.214c-0.47,0.584-0.468,1.198-0.051,1.965c0.296,0.653,0.656,2.221,0.777,3.499
	c0.187,2.256,0.07,2.386-2.107,3.462c-1.763,0.801-2.468,0.913-3.355,0.424c-1.829-1.033-3.241-0.625-5.175,1.598
	c-2.17,2.485-2.284,3.535-0.454,4.262c0.707,0.317,1.948,1.454,2.777,2.498c0.828,1.106,1.951,2.006,2.48,1.968
	c1.179-0.084,2.012,2.186,1.132,3.168c-0.353,0.393-0.644,1.211-0.639,1.885c0.002,0.674-0.645,1.395-1.7,1.839
	c-1.238,0.518-1.881,1.3-2.112,2.604c-0.462,2.24-2.4,3.79-5.87,4.713c-1.414,0.346-3.59,1.238-4.823,1.879
	c-1.234,0.64-2.527,1.162-2.94,1.13c-0.707-0.071-2.585,1.473-4.111,3.361c-0.644,0.781-1.584,1.033-3.766,0.945
	c-2.648-0.056-2.884,0.022-2.88,1.249c0.003,0.98-0.349,1.312-1.467,1.393c-0.823,0.059-1.473,0.289-1.47,0.595
	c0,0.245-0.762,1.403-1.757,2.579c-0.938,1.171-1.932,2.897-2.107,3.768c-0.23,0.936-0.697,2.258-1.046,2.957
	c-0.819,1.653-3.939,2.306-5.062,1.1c-0.948-1.22-1.891-1.09-4.24,0.487c-1.879,1.3-6.055,2.642-8.412,2.689
	c-0.649-0.015-3.769,0.087-6.892,0.127c-4.532,0.081-5.828,0.295-6.414,1.012c-0.527,0.713-0.882,0.738-1.472,0.29
	c-0.474-0.334-0.71-0.869-0.535-1.126c0.175-0.258-0.005-1.349-0.362-2.365c-0.595-1.674-0.891-1.837-2.599-1.591
	c-1.118,0.141-1.942,0.569-1.882,0.871c0.061,0.363-0.527,0.773-1.351,0.955c-0.824,0.182-1.706,0.735-1.938,1.243
	c-0.233,0.507-0.997,0.93-1.587,0.972c-0.766,0.055-1.177,0.514-1.171,1.249c0.004,1.533-1.521,2.868-2.76,2.405
	c-2.006-0.653-5.009-0.559-5.829,0.174c-0.999,0.93-2.591,0.493-2.596-0.795c-0.002-0.49-0.415-0.89-0.887-0.855
	s-0.885-0.243-0.888-0.611c-0.002-0.429-0.648-0.505-1.885-0.109c-1.06,0.26-3.059,0.771-4.471,1.057
	c-2.18,0.401-2.59,0.309-2.89-0.712c-0.24-1.086-0.417-1.135-1.827-0.237c-0.881,0.554-1.88,0.993-2.235,1.019
	c-0.353,0.025-0.997,0.868-1.404,1.878c-1.283,3.464-3.23,3.052-3.893-0.885c-0.42-2.177-1.492-4.797-2.021-4.759
	c-0.295,0.021-0.477-1.438-0.426-3.219c-0.004-1.716-0.191-4.338-0.432-5.67c-0.302-1.633-0.249-2.679,0.163-3.016
	c0.353-0.208,0.644-1.149,0.641-2.068c-0.012-2.636,0.63-4.459,1.398-4.086c0.355,0.22,0.294-0.082-0.18-0.6
	c-0.414-0.522-0.596-1.428-0.421-1.992c0.233-0.63-0.065-1.529-0.598-2.104c-0.887-0.917-0.829-1.166,0.637-3.294
	c0.877-1.228,1.402-2.553,1.166-2.904c-0.177-0.293-0.061-0.608,0.292-0.634c1.59-0.114,4.692-4.996,4.683-7.447
	c-0.005-1.104,0.347-1.741,1.229-1.988c0.766-0.3,0.999-0.563,0.528-0.835c-0.71-0.439,2.043-4.499,7.026-10.497
	c4.981-5.937,5.86-7.226,6.266-8.849c0.174-0.87,1.05-2.466,1.93-3.51c1.291-1.502,1.757-2.823,2.039-5.848
	c0.284-2.718,0.16-4.119-0.372-4.755c-0.592-0.693-0.477-1.375,0.515-3.531c1.053-2.344,1.108-2.961,0.511-5.248
	c-0.597-2.347-0.601-2.715,0.398-3.522c0.589-0.533,2.405-2.196,3.99-3.781c3.403-3.248,4.228-3.553,4.471-1.424
	c0.49,4.563,0.787,5.461,1.907,5.38c0.646-0.046,1.236,0.157,1.239,0.524c0.059,0.302,0.119,0.85,0.18,1.152
	c0.121,1.095,0.771,1.171,5.718,0.938c5.596-0.279,7.6,0.435,7.609,2.764c0.006,1.532,1.613,6.198,2.442,7.12
	c0.474,0.518,3.003-0.461,5.821-2.196c1.471-0.901,1.822-1.05,2.882-1.126c0.297-0.021,0.766-0.607,0.938-1.293
	c0.176-0.688,0.819-1.285,1.41-1.328c0.588-0.042,1.764-0.678,2.585-1.412s1.881-1.361,2.35-1.395
	c0.472-0.034,1.177-0.514,1.586-1.034c0.411-0.52,1.116-0.999,1.528-1.028c0.472-0.034,0.764-0.362,0.703-0.786
	c-0.12-0.421,0.407-1.072,1.173-1.495c1.176-0.636,1.352-1.078,1.162-3.885c-0.124-1.708-0.365-2.977-0.601-2.838
	c-0.763,0.607-0.53-0.39,0.408-1.377c0.527-0.651,0.699-1.583,0.46-2.73c-0.302-1.695-0.244-1.822,1.522-1.949
	C471.047,176.749,471.873,176.874,471.934,177.115z"/>
<path d="M479.864,261.572c0.003,0.92-0.816,2.204-1.229,1.927c-0.884-0.488-0.578,2.677,0.368,3.407
	c0.648,0.505,0.891,1.959,0.906,5.514c0.014,4.229,0.136,4.772,1.197,5.064c1.414,0.389,1.541,2.402,0.251,4.028
	c-1.291,1.625-0.64,2.313,2.425,2.584c2.476,0.19,2.65,0.299,2.657,2.016c0.006,0.981,0.543,2.597,1.252,3.527
	c1.125,1.575,1.193,3.777,0.131,3.485c-0.943-0.239-6.636,5.197-6.63,6.3c0.002,0.613,0.771,1.845,1.72,2.696
	c2.187,1.989,2.905,5.063,1.558,6.693c-1.526,1.826-0.639,2.375,3.307,2.092c2.002-0.144,3.888,0.027,4.242,0.37
	s1.239,0.585,1.944,0.535c0.765-0.055,1.475,0.384,1.654,0.985c0.415,1.257,3.074,2.783,3.717,2.124
	c0.236-0.262,0.465-1.75,0.519-3.347c0.051-1.843,0.4-3.033,1.047-3.447c0.526-0.344,0.938-1.109,0.936-1.722
	c-0.002-0.552,0.405-1.623,0.874-2.331c0.47-0.647,0.878-1.718,0.875-2.332c-0.002-0.552,0.29-1.063,0.584-1.083
	c0.942-0.068,4.896,1.978,5.371,2.74c0.355,0.588,0.943,0.545,2.768-0.198c1.235-0.518,2.824-0.815,3.473-0.678
	c1.946,0.535,3.062-0.404,2.993-2.422c-0.065-1.711,1.048-3.263,1.935-2.713c0.235,0.106,0.705-0.234,1.115-0.754
	c0.411-0.52,1.645-1.038,2.704-1.114c1.649-0.118,2.004,0.102,2.008,1.083c0.002,0.674,0.476,1.437,1.065,1.64
	c2.302,0.877,4.841,2.595,4.843,3.269c0.003,0.368-0.467,1.137-0.993,1.604c-2.641,2.212-3.159,5.437-1.27,7.079
	c1.065,0.905,1.185,1.509,0.9,3.859c-0.229,1.917-0.105,3.195,0.428,3.893c0.77,1.048,0.887,0.979,3.235-0.416
	c1.587-0.973,2.53-1.225,2.826-0.816c0.354,0.587-1.461,3.231-3.396,4.964c-1.703,1.471-2.462,3.426-1.574,3.975
	c0.529,0.269,0.77,1.477,0.719,3.32c-0.051,1.72,0.251,3.415,0.782,4.112c0.947,1.403,1.132,3.719,0.252,4.334
	c-0.294,0.206-0.582,1.391-0.578,2.555c0.006,1.471-0.286,2.228-0.99,2.523c-0.588,0.227-1.589,0.666-2.235,1.019
	c-2.821,1.367-6.058,2.213-8.237,2.186c-1.296-0.03-5.773-0.015-10.014,0.044c-6.832,0.123-8.008,0.33-11.125,1.658
	c-1.939,0.875-3.822,1.562-4.294,1.595c-0.471,0.034-1.234,0.457-1.702,0.98c-0.411,0.52-2.176,1.504-3.881,2.24
	c-6.116,2.524-11.051,5.637-19.035,12.034c-2.524,2.02-5.109,3.983-5.638,4.389c-6.107,4.239-7.812,5.648-11.155,9.199
	c-0.585,0.655-1.289,1.196-1.584,1.217c-0.296,0.021-0.823,0.488-1.234,1.008c-0.82,1.04-11.154,9.077-13.917,10.746
	c-2.291,1.329-2.522,2.388-2.777,12.522c-0.102,4.053-0.207,7.493-0.204,7.616c-0.059,0.311-2.724-3.178-4.028-5.413
	c-0.591-0.938-2.072-2.916-3.256-4.486c-1.245-1.566-2.25-3.21-2.252-3.7c-0.006-1.165-1.782-3.183-3.551-3.975
	c-0.768-0.375-1.713-1.165-2.07-1.813c-0.296-0.653-1.36-1.925-2.247-2.781c-1.477-1.365-1.657-1.965-1.492-4.491
	c0.168-2.525-0.01-2.941-1.132-3.413c-1.415-0.511-1.773-1.65-0.715-2.4c0.411-0.336,0.289-0.818-0.301-1.45
	c-0.887-0.917-0.771-1.109,0.813-2.45c0.999-0.868,1.759-2.026,1.757-2.7c-0.002-0.675,0.409-1.255,0.88-1.289
	c0.53-0.039,1.173-0.759,1.465-1.638c0.409-1.194,0.168-2.587-1.262-6.346c-1.013-2.625-1.729-5.209-1.555-5.651
	c0.292-0.818-2.257-4.742-4.443-6.915c-1.3-1.255-4.242-0.553-6.531,1.634c-1.82,1.663-2.761,1.976-2.766,0.934
	c-0.002-0.491-0.296-0.469-0.882,0.125c-0.705,0.664-1.06,0.566-2.004-0.53c-0.948-1.159-1.242-1.199-2.005-0.47
	c-0.588,0.533-1.882,0.81-3.649,0.691c-2.063-0.036-3.181,0.229-4.589,1.249c-2.409,1.706-3.231,1.704-4.534,0.081
	c-1.006-1.154-1.008-1.399-0.248-2.742c0.703-1.153,0.761-1.709,0.229-2.284c-0.593-0.694-0.946-0.668-2.415,0.235
	c-0.94,0.558-1.706,0.796-1.765,0.556c-0.002-0.307-0.184-1.643-0.306-2.982c-0.184-1.703-0.012-2.819,0.515-3.409
	c0.469-0.524,2.464-2.628,4.401-4.729c2.58-2.761,4.159-5.142,5.736-8.688c1.169-2.659,2.338-5.011,2.632-5.216
	c0.879-0.676,2.86-6.396,3.375-9.928c0.347-1.925,0.865-5.211,1.152-7.194c0.631-3.785,0.452-4.507-1.201-5.615
	c-0.533-0.391-1.183-1.387-1.365-2.293c-0.417-1.502-4.505-7.339-4.5-6.42c0,0.245-0.413,0.03-0.946-0.422
	c-0.474-0.518-1.3-0.888-1.771-0.854c-0.47,0.033-0.824-0.309-0.826-0.799c-0.005-1.226,1.745-5.521,2.74-6.818
	c0.645-0.782,0.703-1.338,0.227-2.162c-0.297-0.653-0.357-1.506-0.125-1.953c0.585-1.022,2.42,1.604,2.428,3.443
	c0.006,1.777,2.597,1.469,4.415-0.563c1.759-2.027,4.171-2.751,6.295-1.984c1.238,0.462,2.063,0.404,3.122-0.163
	c2.114-1.194,5.355-0.63,6.128,1.031c0.653,1.486,2.836,1.819,3.948,0.575c0.705-0.786,5.062-1.345,6.007-0.799
	c1.238,0.708,2.884-0.452,3.229-2.254c0.231-1.243,0.816-1.959,1.817-2.276c0.766-0.239,2.233-1.203,3.171-2.128l1.82-1.724
	l0.83,1.29c0.533,0.697,0.771,1.661,0.596,2.102c-0.464,1.383,0.37,3.897,1.313,3.829c0.472-0.033,0.882-0.309,0.882-0.553
	c-0.005-0.981,4.702-2.361,7.236-2.175c1.354,0.086,3.475,0.18,4.652,0.218c1.237,0.095,2.476,0.251,2.77,0.476
	c0.592,0.325,5.886-1.71,8.881-3.335c1.118-0.632,2.178-0.708,4.712-0.215c1.77,0.363,3.419,0.551,3.713,0.346
	c0.646-0.476,2.748-5.102,2.743-6.205c-0.005-1.042,3.574-4.916,5.338-5.717c0.646-0.292,1.116-0.815,1.112-1.184
	c0-0.306,0.411-0.642,0.883-0.676C479.451,261.356,479.864,261.45,479.864,261.572z"/>
<path d="M680.926,31.597c0.416,1.257,0.659,2.956,0.544,3.823c-0.169,1.484,1.31,3.523,2.488,3.439
	c0.352-0.026,0.591,0.203,0.591,0.508c0.002,0.797,3.01,1.746,4.718,1.501c0.824-0.121,3.062-0.159,5.006-0.053
	c3.535,0.176,5.887-0.606,8.647-2.828c1.526-1.274,7.953,0.594,8.432,2.398c0.18,0.784,1.069,1.824,1.953,2.312
	c0.887,0.55,1.891,1.274,2.188,1.621c0.352,0.28,2.007,1.572,3.72,2.736c1.654,1.23,3.073,2.415,3.073,2.661
	c0,0.245,0.178,0.416,0.474,0.395c1.177-0.268,1.825,0.053,2.182,1.069c0.181,0.662,1.361,1.619,2.542,2.208
	c2.656,1.22,2.957,3.159,0.907,5.453c-1.527,1.704-1.402,3.104,0.313,4.882c0.532,0.513,1.715,1.777,2.661,2.75l1.599,1.786
	l-1.405,2.308c-1.287,2.116-1.516,4.217-0.396,4.136c0.823-0.06,2.012,2.675,2.199,5.053c0.185,2.316,0.665,4.855,0.843,4.844
	c0.059-0.004,0.18,0.539,0.3,1.204c0.121,0.605,0.536,1.74,0.952,2.506c0.593,1.061,0.598,2.041,0.02,4.781
	c-0.406,1.868-0.686,5.566-0.617,8.135c0.012,2.636-0.096,5.647-0.326,6.706c-0.289,1.553,0.067,2.447,1.666,4.662
	c1.718,2.452,1.957,3.231,1.911,6.544c-0.049,2.088-0.272,5.231-0.501,6.902c-0.629,4.766,2.045,11.255,6.244,15.307
	c1.123,1.022,1.13,3.045,0.021,5.516c-0.818,1.897-0.329,5.724,0.849,6.375c0.415,0.276,1.538,1.667,2.604,3.124
	c1.009,1.46,2.486,3.07,3.254,3.567c0.768,0.436,1.831,1.217,2.245,1.617c0.472,0.395,2.42,1.419,4.309,2.326
	c1.888,0.845,4.133,2.4,5.02,3.379c0.886,0.978,2.069,1.874,2.6,2.081c1.003,0.296,0.775,2.213-0.227,2.285
	c-0.294,0.021-1.587,1.217-2.876,2.659c-2.168,2.423-2.343,2.865-2.331,6.175c0.008,1.96,0.251,3.783,0.547,4.129
	c0.354,0.281,0.773,1.661,1.013,3.054c0.545,3.516-0.572,4.086-6.64,3.725c-2.535-0.186-5.305-0.539-6.131-0.847
	c-0.825-0.309-4.83-0.328-8.834-0.162c-4.476,0.26-7.833,0.133-8.718-0.294c-1.478-0.751-6.364-0.156-11.539,1.38
	c-1.589,0.482-5.533,1.01-8.714,1.177c-3.238,0.171-6.006,0.554-6.181,0.873c-0.761,1.159-6.232,2.532-10.886,2.805
	c-7.656,0.427-8.589,2.763-4.49,11.725c1.072,2.314,0.965,5.142-0.214,5.226c-0.412,0.029-1.117,0.448-1.468,0.963
	c-0.41,0.521-1.646,1.1-2.882,1.372c-1.175,0.269-3.766,1.006-5.707,1.697c-3.706,1.246-5.591,0.83-3.183-0.691
	c4.23-2.572,5.689-5.987,2.102-4.749c-1.295,0.399-1.589,0.114-3.073-2.844c-0.892-1.837-1.729-4.78-1.912-6.791
	c-0.31-3.472-0.31-3.533,1.922-5.594c1.761-1.659,2.111-2.236,1.52-2.806c-0.592-0.57-1.122-0.533-2.65,0.251
	c-3.586,1.729-6.41,2.545-6.822,1.962c-0.653-1.057-2.895-1.816-4.779-1.68c-1.354,0.097-1.942,0.507-2.467,1.709
	c-0.467,1.075-1.055,1.547-1.997,1.554c-0.766-0.007-1.473-0.263-1.475-0.507c-0.059-0.241-0.178-0.785-0.238-1.086
	c-0.061-0.364-0.181-0.907-0.241-1.209c-0.002-0.368-0.474-0.579-1.003-0.541c-0.472,0.034-1.181-0.712-1.479-1.671
	c-0.357-0.955-1.008-1.889-1.422-2.043c-0.413-0.093-1.36-1.497-2.014-2.982c-0.653-1.547-2.077-3.835-3.142-5.107
	c-1.954-2.435-4.624-7.638-4.632-9.047c0-0.429,0.937-2.028,1.99-3.576c1.112-1.551,2.223-3.531,2.397-4.34
	c0.403-1.745,3.565-6.693,5.502-8.67c0.705-0.725,1.229-1.744,1.229-2.295c-0.003-0.551,1.05-2.16,2.4-3.544l2.405-2.441
	l5.652-0.345c3.533-0.192,7.301-0.77,9.83-1.625c2.294-0.655,5.178-1.475,6.471-1.751c1.296-0.277,3.001-1.074,3.764-1.742
	c0.763-0.729,2.175-1.321,3.057-1.384c0.943-0.068,1.709-0.368,1.706-0.675c-0.007-1.776-4.57-9.112-6.815-11.035
	c-4.139-3.442-6.146-4.708-7.855-5.076c-1.943-0.413-2.129-1.993-0.245-2.374c0.766-0.177,1.527-0.784,1.702-1.348
	c0.233-0.568,1.229-1.989,2.287-3.045c2.286-2.432,3.803-6.097,3.091-7.394c-0.297-0.591-1.769-0.977-3.832-1.135
	c-4.655-0.279-10.376-1.891-11.381-3.291c-0.828-1.228-4.074-2.65-5.664-2.536c-0.471,0.034-1.234,1.069-1.698,2.268
	c-0.467,1.199-1.11,2.226-1.407,2.247c-0.352,0.025-0.996,1.052-1.578,2.32c-0.528,1.202-1.583,2.565-2.403,2.992
	c-0.766,0.423-1.412,1.021-1.41,1.389c0.002,0.306-1.052,1.976-2.343,3.662c-2.458,3.242-2.809,4.37-1.624,5.512
	c0.531,0.514,0.531,0.697-0.057,0.739c-0.472,0.034-1.181-0.405-1.597-0.988c-0.709-0.931-0.826-0.922-2.119,0.397
	c-1.406,1.449-4.703,1.748-6.122,0.624c-1.239-0.953-0.073-3.918,2.565-6.621c2.053-2.109,2.522-2.939,2.224-3.96
	c-0.299-0.837-0.065-1.651,0.756-2.568c0.879-0.983,1.227-2.172,1.22-4.195c-0.01-2.329,0.282-3.085,1.865-4.67
	c1.525-1.58,1.701-2.083,1.108-2.776c-1.063-1.211,0.039-5.03,1.917-6.697c1.879-1.667,1.643-2.019-1.72-3.555
	c-2.775-1.21-3.31-2.459-1.784-3.734c0.529-0.467,1.052-2.16,1.221-4.318c0.283-2.779,0.691-4.034,2.041-5.664
	c1.465-1.76,1.698-2.451,1.395-4.268c-0.36-2.059-0.243-2.251,1.346-2.672c1.88-0.564,3.819-2.359,3.343-3.121
	c-0.178-0.294,0.292-1.002,0.997-1.542c0.94-0.803,1.115-1.245,0.641-1.702c-0.413-0.399-0.476-1.192-0.125-2.32
	c0.288-0.879,0.283-2.411,0.043-3.375c-0.418-1.441-0.948-1.832-3.365-2.394c-1.652-0.372-3.596-0.723-4.423-0.725
	c-1.411-0.082-1.473-0.2-1.251-3.649c0.054-1.965-0.194-4.707-0.611-6.025c-0.596-1.857-0.656-2.405-0.068-2.693
	c0.41-0.152,0.701-0.847,0.699-1.46c-0.002-0.673,0.23-1.121,0.527-0.896c0.532,0.269,1.582-2.075,1.344-3.039
	c-0.359-1.262,1.997-1.063,5.596,0.457c3.896,1.621,11.673,2.534,12.316,1.446c0.117-0.254,1.703-1.042,3.409-1.655
	c1.764-0.678,3.293-1.585,3.467-2.088c0.175-0.503,1.232-1.437,2.347-2.069c1.293-0.706,2.233-1.753,2.465-2.751
	C678.79,27.643,679.91,28.42,680.926,31.597z"/>
<path d="M552.683,57.171c0.002,0.49,0.474,0.641,1.238,0.402c0.646-0.23,2.003-0.082,3.065,0.393c1.062,0.415,3.068,1.251,4.54,1.82
	l2.656,1.036l-0.106,2.95c-0.211,6.023,3.457,10.358,5.918,6.993c0.762-0.974,1.175-1.188,1.41-0.714
	c0.121,0.421,0.65,0.75,1.063,0.721s1.062,0.721,1.422,1.737c0.356,1.139,1.005,1.767,1.773,1.773c0.707,0.01,1.59,0.009,2.003,0.04
	c0.353-0.025,0.77,1.048,0.892,2.265c0.184,1.949,0.423,2.239,1.776,2.325c1.178,0.038,1.651,0.433,1.714,1.593
	c0.123,0.85-0.169,1.975-0.58,2.495c-0.996,1.297-5.578,4.078-6.932,4.175c-1.592,0.115-1.41,1.205,0.241,1.332
	c0.883,0.059,1.238,0.462,1.122,1.207c-0.115,0.743,0.24,1.27,1.009,1.399c2.476,0.496,1.022,5.443-2.209,7.76
	c-0.999,0.685-2.114,1.317-2.408,1.338c-0.297,0.021-1.177,0.759-1.997,1.676c-0.821,0.917-1.995,1.675-2.645,1.722
	c-0.648,0.047-1.999,0.88-2.995,1.871c-1.584,1.462-1.701,1.838-0.934,2.213c1.063,0.536,1.247,2.975,0.312,4.636
	c-0.645,1.088-0.284,2.289,1.494,5.472c0.77,1.231,0.656,1.853-0.86,5.701c-1.574,4.037-1.688,4.903-1.605,11.272
	c0.074,3.734,0.088,7.228,0.031,7.599c-0.056,0.862-2.999,1.319-3.003,0.46c-0.006-1.042-2.243-1.003-4.063,0.108
	c-1.765,0.985-2.059,0.945-5.069-0.433c-2.949-1.321-3.245-1.606-3.253-3.506c-0.008-1.96-0.127-2.075-2.068-1.936
	c-1.119,0.081-2.063-0.158-2.063-0.465c-0.002-0.368-0.768-0.558-1.769-0.486c-0.942,0.067-1.767,0.433-1.765,0.74
	c0,0.368-0.582,1.942-1.225,3.459c-0.874,1.963-1.163,3.516-0.923,4.909c0.183,1.212,0.01,2.451-0.34,3.028
	c-2.109,2.849-5.992,4.17-7.649,2.511c-0.472-0.456-1.003-0.602-1.236-0.401c-0.178,0.258-0.354,0.148-0.354-0.159
	c-0.003-0.306-0.474-0.579-1.004-0.541c-2.474,0.055-5.127-0.49-5.542-1.196c-0.771-1.171-0.661-3.692,0.274-5.108
	c0.818-1.407,0.989-3.442,0.224-3.387c-0.235,0.017-0.475-0.518-0.477-1.192c-0.002-0.675,0.289-1.247,0.584-1.268
	c0.884-0.064,1.756-2.823,1.338-4.326c-0.241-0.963-0.534-1.126-1.357-0.577c-0.764,0.484-1.177,0.453-1.296,0.032
	c-0.118-0.359-1.417-0.695-2.831-0.777c-1.589-0.07-2.886-0.528-3.243-1.116c-1.066-1.762-2.082-5.123-2.09-7.022
	c-0.005-1.288-0.42-2.177-1.305-2.727c-1.536-0.932-1.536-0.932,3.336-5.328c1.643-1.466,3.286-3.117,3.695-3.759
	c0.409-0.643,1.113-1.183,1.585-1.217c0.942-0.067,4.985-5.14,4.983-6.304c-0.003-0.429,0.64-1.946,1.458-3.354
	c0.819-1.408,1.46-3.047,1.458-3.599c0.059-0.618,0.816-2.266,1.753-3.682c1.696-2.635,5.966-10.666,7.016-13.193
	c0.351-0.823,1.636-3.612,2.921-6.217c1.285-2.606,2.337-4.95,2.335-5.195c0-0.246,0.642-2.008,1.457-3.905
	c0.816-1.897,1.459-3.844,1.456-4.273c-0.007-1.532,1.752-3.62,3.401-3.922C551.618,56.389,552.681,56.437,552.683,57.171z"/>
<path d="M650.393,56.103c2.121-0.091,2.594,0.182,3.721,1.94c0.89,1.469,1.066,2.191,0.598,2.41
	c-0.413,0.152-0.705,0.786-0.702,1.398c0.002,0.552-0.406,1.439-0.874,1.902c-0.47,0.462-0.88,1.473-0.875,2.331
	c0.005,1.287-0.112,1.357-1.234,0.886c-1.711-0.858-3.528,1.48-3.048,3.958c0.362,1.813-0.801,5.698-1.569,5.262
	c-0.945-0.545-1.937,1.855-2.043,4.684c-0.105,3.072-0.63,4.643-1.455,4.15c-1.062-0.599-1.286,2.299-0.282,3.392
	c0.531,0.575,0.831,1.411,0.598,1.735c-0.235,0.446,0.296,0.653,1.355,0.577c1.943-0.14,2.833,1.146,1.599,2.337
	c-0.41,0.397-0.758,1.526-0.755,2.444c0.063,0.916-0.227,2.224-0.638,2.989c-0.349,0.761-0.463,1.75-0.284,2.289
	c0.178,0.478-0.113,1.173-0.818,1.591c-0.882,0.554-1.229,1.56-1.395,4.453c-0.167,2.465-0.574,3.964-1.22,4.563
	c-0.469,0.401-0.996,1.604-1.107,2.654c-0.114,1.173-0.523,1.877-1.056,1.915c-1.47,0.106-3.634,4.124-3.8,7.078
	c-0.165,2.893,0.485,3.827,2.785,3.968c0.766,0.068,1.827,0.298,2.417,0.501c0.649,0.26,1.412-0.041,2.174-0.77
	c1.175-1.188,2.355-0.966,2.36,0.505c0.004,1.226,1.71,0.98,2.178-0.401c0.232-0.569,0.818-1.469,1.287-1.932
	c0.823-0.733,0.821-0.855-0.063-1.588c-1.479-1.059-1.305-1.685,0.691-3.055c0.999-0.685,1.763-1.721,1.759-2.272
	c-0.002-0.551,1.054-2.037,2.343-3.294c1.293-1.258,2.345-2.805,2.343-3.418c-0.003-0.551,0.818-1.714,1.757-2.578
	c0.998-0.807,1.761-1.843,1.759-2.272s0.351-0.822,0.764-0.852c1.472-0.105,4.54,1.574,4.543,2.494
	c0.003,0.49,0.593,0.815,1.417,0.756c0.765-0.055,2.889,0.528,4.719,1.255c1.826,0.727,3.892,1.253,4.597,1.141
	c2.296-0.411,2.768-0.26,3.421,0.98c0.534,1.003,0.301,1.572-1.752,3.865c-1.29,1.441-2.345,2.805-2.345,3.05
	c0.005,0.796-2.051,2.722-3.052,2.793c-0.766,0.055-1.057,0.505-1.052,1.915c0.007,1.9,1.307,2.971,3.429,2.819
	c1.411-0.102,8.328,6.145,10.106,9.083c0.652,1.118,1.247,2.854,1.252,3.772c0.005,1.471-0.17,1.667-1.232,1.438
	c-0.768-0.252-1.12-0.103-0.881,0.247c0.532,0.82-0.819,1.837-3.172,2.374c-1.12,0.264-3.884,1.076-6.178,1.792
	c-6.529,2.001-8.531,2.268-12.48,1.815l-3.712-0.469l-1.992,2.35c-1.175,1.25-2.462,3.181-2.928,4.195
	c-0.527,1.019-1.815,2.95-2.989,4.26c-1.112,1.368-2.051,2.845-2.049,3.273c0.004,0.491-0.232,0.875-0.526,0.897
	c-0.294,0.021-0.763,0.606-0.936,1.293c-0.233,0.69-0.644,1.149-0.941,0.987c-0.47-0.334-0.762,0.729-0.693,2.625
	c0.061,0.425-0.176,0.81-0.47,0.831c-0.294,0.021-0.527,0.467-0.527,0.958c0.002,0.49-0.23,0.936-0.466,0.953
	c-0.294,0.022-0.997,1.053-1.64,2.325c-0.995,1.972-1.348,2.242-2.878,2.106c-1.12-0.103-2.474,0.3-3.646,1.12
	c-2.645,1.907-4.354,1.354-6.017-1.836c-0.771-1.416-1.659-2.578-1.953-2.557c-0.294,0.021-0.354-0.281-0.181-0.6
	c0.176-0.381,0.057-0.617-0.296-0.592c-0.353,0.025-0.472-0.272-0.296-0.592c0.175-0.38,0.056-0.617-0.297-0.592
	c-0.354,0.025-0.531-0.207-0.357-0.526c0.178-0.258-0.889-1.469-2.305-2.716c-1.479-1.18-2.662-2.506-2.664-2.935
	c-0.002-0.613-1.475-0.69-5.537-0.399l-5.535,0.397l-0.362-2.119c-0.241-1.209-0.245-2.435-0.07-2.754
	c0.176-0.38-0.063-1.221-0.537-1.923c-0.532-0.697-0.947-1.097-0.947-0.913c0.003,0.245-0.646-0.198-1.476-0.997
	c-0.828-0.8-1.479-1.672-1.479-1.979c-0.003-0.368-0.652-0.566-1.476-0.507c-0.942,0.068-1.473,0.474-1.471,1.025
	c0.004,0.674-0.643,0.966-2.115,1.072c-2.296,0.164-4.818,2.491-5.222,4.788c-0.348,1.741-2.224,4.145-3.108,3.901
	c-0.413-0.093-1.117,0.142-1.528,0.54c-0.588,0.593-0.998,0.439-1.769-0.731c-0.534-0.82-1.303-1.378-1.713-1.226
	c-0.471,0.096-0.651-0.505-0.539-1.861c0.056-1.108-0.187-2.561-0.484-3.153c-0.531-0.943-0.415-1.197,0.29-1.247
	c0.59-0.042,0.882-0.676,0.877-2.147c-0.013-2.635-0.603-3.022-3.132-2.105c-1.529,0.539-2.236,0.528-3.181-0.201
	c-1.242-0.953-3.316-4.728-2.671-4.774c0.236-0.017,0.47-0.77,0.524-1.632c0.055-1.107-0.3-1.694-1.065-1.823
	c-0.591-0.142-1.123-0.717-1.125-1.33c-0.005-0.98-0.593-1.245-4.425-1.828c-0.295-0.041-1.12-0.104-1.77-0.119
	c-1.941,0.017-3.722-3.349-3.914-7.136c-0.064-1.834,0.16-4.058,0.511-4.941c0.35-0.884,1.049-2.65,1.573-4.036
	c0.817-2.082,0.814-2.695,0.22-4.307c-0.415-1.013-1.186-2.122-1.659-2.456c-0.826-0.615-0.713-1.42,0.634-3.479
	c0.586-0.9,0.583-1.39-0.01-2.39c-0.71-1.114-0.653-1.424,0.694-2.992c0.822-0.917,2.703-2.156,4.172-2.751
	c1.471-0.535,2.883-1.31,3.116-1.756c0.643-1.089,2.876-2.414,4.229-2.512c1.356-0.097,1.414-0.346,0.583-1.941
	c-0.476-0.824-0.421-1.503,0.282-2.657c1.112-1.857,0.632-4.459-0.962-5.386c-1.536-0.871-1.42-1.37,0.345-1.925
	c1.647-0.547,4.933-4.216,4.985-5.508c-0.002-0.368,0.231-0.752,0.468-0.769c0.296-0.021,1.469-1.086,2.701-2.4
	c1.171-1.249,2.347-2.192,2.583-2.025c0.59,0.326,0.648,0.076,0.923-4.726c0.335-4.867,1.623-6.676,5.037-6.982
	c1.472-0.105,3.297-0.665,4.118-1.215c0.824-0.549,2.178-1.015,3.06-1.14c1.354-0.097,1.827,0.36,2.896,2.551
	c0.711,1.481,1.424,2.657,1.659,2.64c3.829-0.029,10.548,1.021,11.021,1.723c0.177,0.293,1.295-0.094,2.472-0.852
	c1.173-0.698,2.937-1.56,3.819-1.808c1.001-0.255,1.822-1.05,2.172-1.995c0.524-1.509,0.583-1.513,2.648-0.742
	c2.298,0.816,2.592,0.672,6.939-2.705c1.409-1.082,3.289-2.197,4.229-2.449c2.294-0.717,5.586-2.669,5.584-3.343
	c-0.002-0.307,0.353-0.27,0.823,0.063C647.564,55.877,649.039,56.138,650.393,56.103z"/>
<path d="M379.256,349.164c-0.401,2.542-0.282,2.779,0.777,2.703c0.646-0.046,1.354-0.404,1.528-0.723
	c0.174-0.381,0.879-0.676,1.528-0.723c1.06-0.076,1.121,0.042,0.299,0.898c-0.763,0.852-0.76,1.281-0.168,2.341
	c1.602,2.889,3.665,3.293,6.721,1.479c2.114-1.256,3.706-0.94,3.713,0.714c0.004,1.41,1.655,1.475,2.121,0.093
	c0.233-0.508,0.702-0.97,1.115-1c0.472-0.034,0.879-0.493,0.997-1.053c0.172-0.87,0.408-0.826,1.769,0.18
	c0.885,0.672,1.947,0.963,2.476,0.742s1.295-0.154,1.708,0.184c0.651,0.443,1.179,0.099,2.526-1.653
	c2.227-2.979,3.641-2.959,6.656-0.11c2.067,1.998,2.425,2.769,2.435,4.914c0.004,1.409,0.663,3.814,1.494,5.471
	c1.839,3.791,1.844,4.956,0.021,5.821c-0.823,0.366-1.467,1.087-1.465,1.578c0,0.49-0.645,1.027-1.587,1.217
	c-1.473,0.289-1.589,0.542-1.638,3.182c0.008,1.654,0.19,2.929,0.484,2.908c0.294-0.021,0.354,0.527,0.121,1.156
	c-0.348,1.19,1.015,3.054,2.133,2.974c0.353-0.025,0.477,1.008,0.245,2.68c-0.286,1.798-0.165,2.832,0.31,3.104
	c0.353,0.22,0.944,1.036,1.244,1.873c0.356,0.955,0.828,1.35,1.416,1.063s0.885-0.002,0.887,0.794
	c0.002,0.735,0.772,1.539,1.951,2.066c2.717,1.276,3.956,2.414,3.963,3.824c0.003,0.612,0.773,2.151,1.662,3.313
	c1.834,2.319,2.369,3.14,6.337,8.984l2.668,3.978l0.026,6.864c0.015,3.8-0.361,13.145-0.802,20.778
	c-1.156,20.559-1.316,24.678-1.341,33.568c0.031,8.089,0.034,8.149-1.322,8.247c-2.354,0.169-7.313-2.479-9.384-5.027
	c-2.072-2.549-5.508-7.635-9.954-14.732c-3.971-6.396-4.855-6.825-8.201-3.887c-1.761,1.535-7.885,2.099-10.718,0.891
	c-3.776-1.506-4.721-2.174-8.978-6.589c-3.963-4.068-4.435-4.339-6.317-3.961c-2.768,0.506-7.014-1.457-11.094-5.148l-3.193-2.959
	l-6.184,0.322c-3.356,0.24-6.949,0.068-7.893-0.292c-1.297-0.458-4.537-0.288-12.486,0.589c-5.888,0.668-11.362,1.308-12.186,1.366
	c-0.825,0.06-3.064-0.209-5.01-0.684c-1.946-0.473-5.246-0.849-7.306-0.823c-2.063-0.036-4.065-0.321-4.42-0.664
	c-1.893-1.887-3.555-4.893-4.568-8.192c-0.598-1.98-1.607-4.177-2.257-4.864c-0.651-0.629-1.66-2.578-2.314-4.249l-1.131-3.045
	l5.351-2.039c5.587-2.18,7.938-3.758,10.34-6.935c0.82-1.04,2.051-2.599,2.813-3.45c0.702-0.847,1.288-1.809,1.287-2.178
	c-0.001-0.368,0.701-1.337,1.641-2.202c4.107-3.972,6.865-6.745,9.151-9.3c1.818-1.97,4.581-3.823,10.105-6.795
	c6.758-3.611,13.574-7.901,16.098-10.167c0.469-0.462,2.697-3.136,4.984-5.998c2.226-2.857,4.57-5.662,5.158-6.194
	c3.873-3.466,5.163-4.969,5.453-6.277c0.233-0.813,0.7-1.766,1.113-2.042c1.232-0.885,4.803-6.414,5.21-8.159
	c0.347-1.496,1.458-3.415,2.045-3.519C379.54,346.385,379.426,347.619,379.256,349.164z"/>
<path d="M299.1,425.601c0.773,1.846,1.781,3.611,2.135,3.954c0.413,0.277,1.424,2.534,2.199,4.93
	c0.833,2.393,2.437,5.465,3.62,6.913c2.071,2.426,2.248,2.475,6.077,2.444c2.238,0.024,4.831,0.268,5.773,0.566
	c4.483,1.395,6.604,1.61,8.604,0.854c2.882-1.003,22.077-2.565,22.611-1.807c0.178,0.416,2.651,0.484,5.773,0.26
	c6.181-0.444,9.248,0.256,11.023,2.396c2.013,2.554,8.683,6.12,10.8,5.784c3.004-0.461,4.243,0.186,7.202,3.712
	c3.077,3.642,3.725,4.147,7.856,5.996c3.837,1.747,9.548,1.46,12.19-0.568c1.822-1.357,4.41-1.973,4.414-0.992
	c0.004,0.736,10.906,17.363,12.859,19.614c2.425,2.769,5.258,4.281,8.441,4.481l2.944,0.156l0.056,14.525
	c0.032,7.967-0.1,19.072-0.313,24.667c-0.261,8.662-0.434,10.145-1.258,10.266c-1.059,0.138-28.738,0.837-55.711,1.364
	c-9.719,0.146-21.793,0.461-26.798,0.637c-5.006,0.176-16.138,0.483-24.736,0.611c-8.598,0.126-21.614,0.509-28.977,0.792
	l-13.427,0.535l0.024,6.067c0.014,3.31-0.367,11.489-0.753,18.076c-0.445,6.593-0.994,16.686-1.148,22.459
	c-0.213,5.716-0.647,14.942-1.039,20.488l-0.607,10.036l-8.538,0.735c-4.71,0.461-10.42,1.3-12.715,1.955
	c-4.177,1.157-4.235,1.102-8.836-0.407c-8.435-2.829-14.33-4.061-17.921-3.803c-1.943,0.14-4.712,0.032-6.185-0.292
	c-2.241-0.452-3.359-0.31-7.183,0.886c-2.529,0.793-5.647,1.997-6.939,2.703c-1.293,0.646-3.057,1.445-3.939,1.755
	c-2.235,0.711-10.782-0.82-18.154-3.172c-6.605-2.162-8.903-2.364-9.958-0.94c-0.527,0.65-2.234,1.02-6.355,1.376
	c-4.004,0.287-6.005,0.737-7.003,1.483c-0.764,0.546-2.293,1.084-3.412,1.165c-2.296,0.165-3.419-0.92-5.794-5.714
	c-1.128-2.188-1.719-2.697-3.133-2.718c-0.943-0.056-2.534-0.31-3.418-0.613c-1.533-0.503-1.652-0.739-1.367-3.091
	c0.343-2.721,1.332-5.919,2.676-8.528c0.526-1.08,0.809-3.92,0.85-8.644c0.043-3.864,0.322-8.054,0.67-9.242
	c2.497-8.885,3.372-11.156,5.189-13.37c1.055-1.302,2.224-3.592,2.571-5.088c0.348-1.497,1.103-4.126,1.744-5.827
	c0.641-1.763,1.164-3.517,1.163-3.884c-0.002-0.43,0.349-1.006,0.76-1.281c1.234-0.824,4.395-5.894,5.795-9.182
	c0.642-1.579,1.279-4.384,1.39-6.23c0.052-1.843,0.162-3.567,0.161-3.873c0.059-0.25,1.172-1.617,2.521-3.063
	c1.643-1.711,3.053-2.671,4.113-2.746c1.059-0.077,2.586-1.168,4.874-3.661c2.933-3.092,3.813-3.707,6.874-4.478
	c2-0.512,4.529-1.675,5.938-2.757c1.35-1.077,4.347-3.01,6.58-4.272c5.171-3.007,9.517-6.2,11.57-8.556
	c1.642-1.834,4.562-8.05,4.556-9.645c-0.001-0.49,0.932-2.765,2.042-5.052c1.109-2.287,2.042-4.928,2.038-5.846
	c-0.003-0.92,1.165-3.518,2.744-6.083c1.463-2.435,3.217-5.688,3.8-7.262c1.108-2.715,2.975-7.202,4.085-9.61
	c0.233-0.631,0.464-1.506,0.462-2.058c-0.008-1.961,1.924-5.103,3.688-6.026c2.821-1.49,3.817-2.665,5.686-6.968
	c0.991-2.155,2.337-4.337,3.102-4.881c1.703-1.288,6.763-2.816,10.236-3.064c1.532-0.11,4.239-0.612,6.004-1.045
	c1.823-0.498,6.885-1.843,11.239-2.952c8.825-2.351,14.296-4.214,19.998-6.892c2.116-1.01,3.939-1.816,4.115-1.828
	C297.496,422.161,298.268,423.699,299.1,425.601z"/>
<path d="M151.343,610.432c1.943-0.14,3.54,1.401,4.789,4.684c1.786,4.53,5.088,5.642,9.378,3.127
	c1.234-0.701,2.587-1.044,4.061-0.903c1.179,0.16,2.532-0.06,3.002-0.4c0.47-0.341,1.53-0.417,2.591-0.186
	c1.474,0.323,2.062,0.157,3.118-0.96c1.642-1.712,3.586-1.668,9.366,0.309c4.659,1.504,10.378,2.933,14.739,3.602
	c2.416,0.377,3.417,0.243,5.593-0.771c1.469-0.657,3.822-1.684,5.292-2.279c7.41-2.861,7.468-2.928,11.77-2.439
	c2.298,0.265,5.303,0.355,6.715,0.255c1.59-0.115,6.188,0.781,11.437,2.244c9.669,2.678,12.025,2.752,20.146,0.82
	c3.177-0.779,6.003-1.043,10.186-0.915l5.833,0.195l-0.328,6.46c-0.819,16.365-2.026,38.949-2.305,42.894l-0.336,4.438l-3.647,1.243
	c-2,0.634-5.645,2.306-8.055,3.644c-3.115,1.694-5.997,2.699-9.468,3.438c-4.945,0.969-5.239,1.112-15.165,8.017
	c-11.689,8.135-14.974,11.681-17.303,18.468l-1.339,4.02l1.138,4.763c0.779,3.315,1.147,7.028,1.167,12.115
	c0.016,4.044,0.366,18.18,0.771,31.393c0.464,13.209,0.685,24.104,0.508,24.3c-0.176,0.197-2.767,0.26-5.831,0.114
	c-3.063-0.088-8.894-0.098-12.899,0.005c-4.063,0.108-12.015,0.128-17.67,0.042c-5.655-0.083-13.371-0.082-17.081,0
	c-3.71,0.084-11.543,0.095-17.375,0.023c-5.831-0.073-13.665-0.061-17.376,0.021c-3.71,0.082-11.426,0.084-17.081,0.001
	c-5.654-0.086-13.605-0.066-17.67,0.042c-4.063,0.107-9.482,0.067-12.074-0.053c-2.593-0.182-9.602-0.169-15.609-0.105
	c-6.008,0.125-13.959,0.144-17.67,0.104c-3.711-0.04-9.189-0.138-12.193-0.106l-5.419,0.021l-1.219,4.563
	c-0.697,2.502-1.744,5.703-2.387,7.098l-1.108,2.532l0.286-2.165c0.172-1.178,0.284-2.842,0.28-3.638s0.288-1.798,0.581-2.248
	c0.351-0.454,0.931-2.826,1.392-5.373c0.461-2.546,1.212-6.155,1.735-8.032c1.219-4.439,1.623-6.676,1.729-9.441
	c0.054-1.23,0.578-2.863,1.223-3.583c0.82-1.101,0.936-1.538,0.404-2.052c-1.004-0.97-0.947-1.281,1.338-4.265
	c1.114-1.49,2.049-3.09,2.047-3.581c-0.002-0.488,0.23-1.365,0.522-1.997c0.233-0.569,0.876-1.964,1.343-2.979
	c0.526-1.08,1.05-2.65,1.282-3.586c0.173-0.871,1.109-2.472,2.107-3.523c0.938-0.988,1.758-2.089,1.816-2.46
	c-0.001-0.307,0.936-1.478,2.051-2.537c1.525-1.459,2.231-1.755,2.763-1.241c1.596,1.54,6.183-0.444,8.584-3.743
	c0.762-1.035,1.579-3.055,1.867-4.486c0.405-1.807,1.166-3.21,2.691-4.669c2.229-2.244,3.63-5.655,3.675-9.091
	c-0.005-1.164,0.693-3.298,1.453-4.701c0.82-1.409,1.46-3.171,1.458-3.846c-0.004-1.041,0.466-1.443,1.996-1.859
	c4.178-1.096,7.039-7.188,4.79-10.092c-0.71-0.93-0.36-1.751,2.975-7.263c2.048-3.396,4.097-6.547,4.449-6.878
	c1.702-1.533,3.34-4.471,3.334-5.88c-0.006-1.349,4.036-7.217,9.546-13.743c4.221-4.962,4.22-5.084,3.034-7.207
	c-0.592-0.998-1.539-2.095-2.012-2.491c-0.827-0.553-0.592-0.814,1.348-1.813c1.234-0.64,3.233-1.581,4.41-2.032
	c1.411-0.594,2.408-1.522,2.934-2.786c0.466-1.077,1.052-1.978,1.287-2.115c0.235-0.14,2.113-1.99,4.166-4.1
	c2.053-2.172,3.99-3.965,4.284-3.987c0.707-0.051,2.407-1.949,6.862-7.48c2.345-2.866,4.164-4.406,7.397-6.171
	c2.292-1.269,4.23-2.634,4.229-3.063c-0.001-0.368,0.936-1.723,2.108-2.909c1.994-2.167,2.112-2.175,3.765-1.435
	C148.81,610.186,150.342,610.503,151.343,610.432z"/>
</svg>
